<mxfile host="app.diagrams.net" modified="2023-05-20T07:27:44.485Z" agent="Mozilla/5.0 (Windows NT 10.0; Win64; x64; rv:109.0) Gecko/20100101 Firefox/113.0" version="21.2.9" etag="0XId6gTxSKeBzDO0sCsE" type="github">
  <diagram name="Page-1" id="cMxzSugarm-oTfJkEyR2">
    <mxGraphModel>
      <root>
        <mxCell id="0" />
        <mxCell id="1" parent="0" />
      </root>
    </mxGraphModel>
  </diagram>
</mxfile>
